<?xml version="1.0" standalone="no"?>
<!DOCTYPE svg PUBLIC "-//W3C//DTD SVG 20010904//EN"
 "http://www.w3.org/TR/2001/REC-SVG-20010904/DTD/svg10.dtd">
<svg version="1.0" xmlns="http://www.w3.org/2000/svg"
 width="1280.000000pt" height="1280.000000pt" viewBox="0 0 1280.000000 1280.000000"
 preserveAspectRatio="xMidYMid meet">
<metadata>
Created by potrace 1.14, written by Peter Selinger 2001-2017
</metadata>
<g transform="translate(0.000000,1280.000000) scale(0.100000,-0.100000)"
fill="#000000" stroke="none">
<path d="M6088 12795 c-2 -2 -43 -6 -93 -9 -173 -11 -294 -22 -349 -31 -11 -2
-48 -6 -81 -10 -33 -3 -69 -8 -80 -10 -11 -2 -38 -7 -60 -10 -22 -3 -66 -10
-98 -16 -32 -5 -71 -12 -87 -14 -16 -2 -37 -6 -47 -9 -10 -3 -34 -8 -53 -12
-19 -3 -39 -7 -45 -8 -5 -2 -28 -6 -50 -10 -173 -34 -510 -129 -735 -207 -247
-87 -264 -93 -272 -104 -4 -5 -8 -7 -8 -3 0 6 -43 -10 -125 -47 -16 -7 -46
-20 -65 -28 -327 -139 -732 -364 -1055 -586 -151 -103 -383 -279 -471 -356 -7
-5 -29 -24 -50 -41 -41 -34 -42 -35 -179 -159 -134 -121 -336 -326 -479 -485
-118 -131 -328 -397 -433 -547 -37 -54 -71 -102 -75 -108 -19 -24 -198 -305
-198 -310 0 -3 -18 -34 -40 -70 -22 -36 -40 -67 -40 -70 0 -2 -14 -28 -31 -57
-68 -115 -309 -617 -309 -644 0 -3 -7 -20 -15 -37 -73 -155 -231 -648 -291
-909 -2 -10 -6 -28 -10 -40 -6 -28 -7 -33 -38 -183 -14 -66 -28 -142 -32 -170
-3 -27 -8 -53 -10 -56 -1 -3 -6 -28 -9 -56 -3 -27 -8 -60 -10 -74 -3 -13 -8
-49 -11 -79 -3 -30 -7 -66 -9 -80 -3 -14 -8 -54 -11 -90 -3 -36 -7 -80 -10
-98 -19 -139 -26 -777 -11 -977 14 -186 16 -210 22 -250 2 -22 7 -67 10 -100
3 -33 10 -85 15 -115 9 -52 13 -82 25 -167 7 -43 21 -119 40 -213 8 -36 16
-80 20 -97 3 -18 17 -79 31 -135 14 -57 27 -114 30 -128 2 -14 7 -32 11 -40 3
-8 7 -19 8 -25 12 -51 58 -201 106 -345 76 -229 88 -262 102 -279 7 -8 11 -15
9 -15 -4 -1 4 -28 19 -63 5 -13 13 -33 18 -45 5 -13 22 -54 39 -93 100 -230
267 -565 285 -573 4 -2 7 -8 7 -13 0 -4 20 -43 45 -85 25 -41 45 -77 45 -80 0
-7 245 -382 277 -424 6 -8 62 -82 124 -165 62 -82 115 -152 119 -155 3 -3 28
-32 54 -65 172 -214 489 -539 711 -730 39 -33 72 -62 75 -65 3 -3 41 -35 85
-70 44 -36 82 -67 85 -70 14 -15 255 -193 325 -241 44 -30 85 -57 90 -62 33
-24 324 -207 331 -207 2 0 21 -10 42 -23 189 -119 669 -345 917 -433 39 -14
79 -29 90 -34 40 -19 398 -134 466 -150 24 -5 78 -19 119 -30 41 -12 116 -30
165 -41 99 -22 105 -23 220 -45 107 -21 113 -22 163 -28 24 -3 46 -7 50 -10 4
-2 34 -7 67 -10 33 -3 71 -8 85 -11 14 -3 45 -7 70 -10 25 -2 70 -7 100 -10
238 -25 319 -28 660 -29 282 0 457 5 575 19 22 2 67 7 100 10 119 11 160 16
181 20 11 3 45 7 75 11 30 4 59 8 64 9 23 5 82 15 110 19 17 3 55 9 85 16 30
6 69 13 85 16 17 2 38 7 48 10 10 3 30 7 45 9 34 5 399 98 472 120 665 208
1203 463 1740 824 124 83 407 292 445 328 11 10 29 25 41 33 33 23 190 160
293 255 92 85 313 308 386 390 39 43 75 83 80 89 6 6 33 38 61 71 27 33 59 71
71 85 12 14 59 73 105 132 391 504 698 1047 921 1628 95 249 191 551 233 733
2 9 6 25 8 35 14 52 56 242 61 272 3 19 8 43 11 53 3 10 7 30 9 45 2 15 13 83
24 152 12 69 24 150 27 180 3 30 7 65 9 76 5 33 14 121 20 194 3 36 8 106 12
155 10 117 9 680 0 816 -13 188 -34 381 -57 536 -6 37 -13 84 -15 103 -3 19
-10 60 -17 90 -6 30 -12 64 -14 75 -1 11 -8 49 -17 85 -8 36 -18 81 -21 100
-3 19 -19 87 -36 150 -17 63 -32 123 -35 134 -15 63 -102 350 -115 381 -5 11
-27 72 -50 135 -43 121 -87 230 -126 318 -13 29 -24 54 -24 57 0 25 -222 464
-314 619 -25 43 -46 79 -46 82 0 7 -248 387 -277 424 -6 8 -46 62 -89 120 -67
91 -228 293 -259 326 -5 6 -32 37 -60 69 -140 164 -440 464 -605 605 -75 65
-147 125 -175 148 -189 150 -284 221 -470 347 -97 66 -285 184 -315 198 -8 4
-28 16 -45 27 -34 22 -50 30 -160 90 -157 84 -415 210 -515 250 -25 10 -63 26
-85 36 -22 10 -42 18 -45 19 -8 3 -43 16 -75 30 -55 23 -259 94 -375 130 -63
20 -122 39 -130 42 -8 3 -24 8 -35 10 -11 2 -31 7 -45 13 -20 7 -228 61 -290
75 -92 21 -219 47 -235 49 -11 1 -45 8 -75 14 -30 7 -71 14 -90 16 -86 12
-117 16 -140 21 -23 5 -76 11 -160 20 -19 2 -48 6 -65 9 -16 2 -73 8 -125 12
-52 3 -113 8 -135 11 -46 5 -732 12 -737 8z"/>
</g>
</svg>
